HIERARCHY
ROOT Hips
{
	OFFSET 0.000000 0.000000 0.000000
	CHANNELS 6 Xposition Yposition Zposition Zrotation Yrotation Xrotation 
	JOINT LHipJoint
	{
		OFFSET 0.000000 0.000000 0.000000
		CHANNELS 3 Zrotation Yrotation Xrotation
		JOINT LeftUpLeg
		{
			OFFSET 1.363060 -1.794630 0.839290
			CHANNELS 3 Zrotation Yrotation Xrotation
			JOINT LeftLeg
			{
				OFFSET 2.448110 -6.726130 0.000000
				CHANNELS 3 Zrotation Yrotation Xrotation
				JOINT LeftFoot
				{
					OFFSET 2.562200 -7.039590 0.000000
					CHANNELS 3 Zrotation Yrotation Xrotation
					JOINT LeftToeBase
					{
						OFFSET 0.157640 -0.433110 2.322550
						CHANNELS 3 Zrotation Yrotation Xrotation
						End Site
						{
							OFFSET 0.000000 0.000000 0.000000
						}
					}
				}
			}
		}
	}
	JOINT RHipJoint
	{
		OFFSET 0.000000 0.000000 0.000000
		CHANNELS 3 Zrotation Yrotation Xrotation
		JOINT RightUpLeg
		{
			OFFSET -1.305520 -1.794630 0.839290
			CHANNELS 3 Zrotation Yrotation Xrotation
			JOINT RightLeg
			{
				OFFSET -2.542530 -6.985550 0.000000
				CHANNELS 3 Zrotation Yrotation Xrotation
				JOINT RightFoot
				{
					OFFSET -2.568260 -7.056230 0.000000
					CHANNELS 3 Zrotation Yrotation Xrotation
					JOINT RightToeBase
					{
						OFFSET -0.164730 -0.452590 2.363150
						CHANNELS 3 Zrotation Yrotation Xrotation
						End Site
						{
							OFFSET 0.000000 0.000000 0.000000
						}
					}
				}
			}
		}
	}
	JOINT LowerBack
	{
		OFFSET 0.000000 0.000000 0.000000
		CHANNELS 3 Zrotation Yrotation Xrotation
		JOINT Spine
		{
			OFFSET 0.028270 2.035590 -0.193380
			CHANNELS 3 Zrotation Yrotation Xrotation
			JOINT Spine1
			{
				OFFSET 0.056720 2.048850 -0.042750
				CHANNELS 3 Zrotation Yrotation Xrotation
				JOINT Neck
				{
					OFFSET 0.000000 0.000000 0.000000
					CHANNELS 3 Zrotation Yrotation Xrotation
					JOINT Neck1
					{
						OFFSET -0.054170 1.746240 0.172020
						CHANNELS 3 Zrotation Yrotation Xrotation
						JOINT Head
						{
							OFFSET 0.104070 1.761360 -0.123970
							CHANNELS 3 Zrotation Yrotation Xrotation
							End Site
							{
								OFFSET 0.000000 0.000000 0.000000
							}
						}
					}
				}
				JOINT LeftShoulder
				{
					OFFSET 0.000000 0.000000 0.000000
					CHANNELS 3 Zrotation Yrotation Xrotation
					JOINT LeftArm
					{
						OFFSET 3.362410 1.200890 -0.311210
						CHANNELS 3 Zrotation Yrotation Xrotation
						JOINT LeftForeArm
						{
							OFFSET 4.983000 -0.000000 -0.000000
							CHANNELS 3 Zrotation Yrotation Xrotation
							JOINT LeftHand
							{
								OFFSET 3.483560 -0.000000 -0.000000
								CHANNELS 3 Zrotation Yrotation Xrotation
								JOINT LeftFingerBase
								{
									OFFSET 0.000000 0.000000 0.000000
									CHANNELS 3 Zrotation Yrotation Xrotation
									JOINT LeftHandIndex1
									{
										OFFSET 0.715260 -0.000000 -0.000000
										CHANNELS 3 Zrotation Yrotation Xrotation
										End Site
										{
											OFFSET 0.000000 0.000000 0.000000
										}
									}
								}
								JOINT LThumb
								{
									OFFSET 0.000000 0.000000 0.000000
									CHANNELS 3 Zrotation Yrotation Xrotation
									End Site
									{
										OFFSET 0.000000 0.000000 0.000000
									}
								}
							}
						}
					}
				}
				JOINT RightShoulder
				{
					OFFSET 0.000000 0.000000 0.000000
					CHANNELS 3 Zrotation Yrotation Xrotation
					JOINT RightArm
					{
						OFFSET -3.136600 1.374050 -0.404650
						CHANNELS 3 Zrotation Yrotation Xrotation
						JOINT RightForeArm
						{
							OFFSET -5.241900 -0.000000 -0.000000
							CHANNELS 3 Zrotation Yrotation Xrotation
							JOINT RightHand
							{
								OFFSET -3.444170 -0.000000 -0.000000
								CHANNELS 3 Zrotation Yrotation Xrotation
								JOINT RightFingerBase
								{
									OFFSET 0.000000 0.000000 0.000000
									CHANNELS 3 Zrotation Yrotation Xrotation
									JOINT RightHandIndex1
									{
										OFFSET -0.622530 -0.000000 -0.000000
										CHANNELS 3 Zrotation Yrotation Xrotation
										End Site
										{
											OFFSET 0.000000 0.000000 0.000000
										}
									}
								}
								JOINT RThumb
								{
									OFFSET 0.000000 0.000000 0.000000
									CHANNELS 3 Zrotation Yrotation Xrotation
									End Site
									{
										OFFSET 0.000000 0.000000 0.000000
									}
								}
							}
						}
					}
				}
			}
		}
	}
}
MOTION
Frames: 6
Frame Time: 0.008333
-0.596519 16.806707 -0.225097 8.259682 84.308306 14.399539 -9.759596 0.925081 1.122707 -18.558171 9.281512 -35.470949 -2.269437 0.389214 24.399641 2.423823 12.933030 -8.035083 0.224401 0.000000 -3.048300 10.890679 -4.537902 -0.640818 -2.971011 -12.863388 -0.907561 0.892533 -2.878102 37.007346 0.878367 22.491753 13.372068 7.236700 0.000000 -85.989900 -7.231467 2.552381 -2.484792 -2.129331 2.922516 -3.922719 -5.110527 2.793316 -1.220784 4.866232 -0.140036 -7.743815 -2.307580 -0.180469 -0.041491 0.000000 0.000000 0.000000 -9.781798 20.913616 2.636016 -62.146380 30.572100 -1.897625 -4.654945 -13.578001 -0.010098 0.280061 5.475425 0.018342 -0.104040 -0.111510 -0.000000 0.000000 0.000000 0.000000 0.000000 0.000000 0.000000 4.423328 8.168898 -0.559504 47.799664 49.736600 17.743545 0.319607 62.386226 -0.005634 0.856867 8.404358 0.074490 -0.094638 -0.489564 -0.000000 0.000000 0.000000 0.000000 0.000000 0.000000 0.000000 
-0.445979 16.766953 -0.244076 11.879491 84.350273 17.921084 -9.657476 0.941869 1.012528 -19.089279 9.212295 -35.733416 -2.215841 0.521379 26.375641 2.461876 13.009831 -8.739111 0.029999 -0.000000 -2.342099 11.148951 -4.532279 -0.611041 -3.869166 -12.887164 -2.381266 0.639974 -3.087235 40.212556 0.726121 23.033194 15.084853 8.161500 -0.000000 -85.641700 -7.630484 2.401915 -2.420046 -2.215618 2.801299 -3.946532 -5.173550 2.672096 -1.351842 5.060072 0.162329 -7.626579 -2.373010 -0.186619 -0.015749 0.000000 0.000000 0.000000 -9.844542 20.367259 2.737072 -62.341560 29.855276 -1.292108 -4.652736 -13.377584 -0.010545 0.076139 5.662819 0.008534 -0.100902 -0.106698 -0.000000 0.000000 0.000000 0.000000 0.000000 0.000000 0.000000 4.786232 8.520742 -0.509779 49.429176 48.850946 18.010416 0.384016 61.804054 -0.005288 0.759701 8.408005 0.066462 -0.087376 -0.487096 -0.000000 0.000000 0.000000 0.000000 0.000000 0.000000 0.000000 
-0.300755 16.723099 -0.263768 15.349901 84.403952 21.292786 -9.532298 0.959358 0.901743 -19.606682 9.073234 -35.963541 -2.160275 0.650780 28.375327 2.508656 13.079033 -9.615704 -0.212000 -0.000000 -1.750700 11.413236 -4.489176 -0.603667 -4.684452 -12.878556 -3.902138 0.383320 -3.295186 43.525027 0.566687 23.093834 16.668070 8.891100 -0.000000 -84.451300 -7.976933 2.244807 -2.309928 -2.291235 2.670530 -3.963529 -5.241447 2.541919 -1.499404 5.232976 0.472843 -7.506703 -2.449141 -0.193547 0.009470 0.000000 0.000000 0.000000 -9.943358 19.763765 2.845241 -62.515529 29.064277 -0.491375 -4.647221 -13.238864 -0.010978 -0.173071 5.836591 -0.004272 -0.097651 -0.101603 -0.000000 0.000000 0.000000 0.000000 0.000000 0.000000 0.000000 5.175409 8.884219 -0.457688 51.026428 47.937145 18.177749 0.443047 61.171242 -0.005012 0.664519 8.405736 0.058528 -0.080735 -0.484547 -0.000000 0.000000 0.000000 0.000000 0.000000 0.000000 0.000000 
-0.160879 16.675730 -0.284302 18.700157 84.468792 24.535009 -9.390082 0.979156 0.787736 -20.107736 8.885582 -36.131653 -2.105450 0.775376 30.351619 2.564683 13.151407 -10.641983 -0.496500 -0.000000 -1.268100 11.679136 -4.408764 -0.622349 -5.417834 -12.846613 -5.448170 0.121736 -3.504676 46.919841 0.403691 22.573897 18.042414 9.306501 -0.000000 -82.540700 -8.270567 2.085999 -2.149188 -2.356842 2.534803 -3.973306 -5.316655 2.407222 -1.664144 5.389182 0.797450 -7.379968 -2.538019 -0.201453 0.035233 0.000000 0.000000 0.000000 -10.081207 19.101190 2.958457 -62.648824 28.188904 0.501525 -4.638400 -13.142636 -0.011346 -0.450736 5.989107 -0.019376 -0.094350 -0.096163 -0.000000 0.000000 0.000000 0.000000 0.000000 0.000000 0.000000 5.603675 9.265472 -0.400515 52.565625 46.980824 18.220606 0.496170 60.502682 -0.004812 0.576396 8.407047 0.051286 -0.074940 -0.482120 -0.000000 0.000000 0.000000 0.000000 0.000000 0.000000 0.000000 
-0.026189 16.625710 -0.305507 22.037081 84.544120 27.748819 -9.230918 1.003620 0.668830 -20.602857 8.663355 -36.207969 -2.054154 0.892005 32.252017 2.631283 13.243679 -11.785427 -0.816901 -0.000001 -0.882900 11.949181 -4.292019 -0.668441 -6.086503 -12.806460 -7.006602 -0.146461 -3.718515 50.370499 0.236431 21.412882 19.141186 9.319500 -0.000000 -80.098700 -8.522457 1.928466 -1.936248 -2.415610 2.397454 -3.974567 -5.401630 2.271341 -1.839641 5.539704 1.131100 -7.247461 -2.641992 -0.210481 0.060970 0.000000 0.000000 0.000000 -10.244329 18.394940 3.075380 -62.728112 27.188194 1.678775 -4.625999 -13.044825 -0.011590 -0.734205 6.112659 -0.035275 -0.091045 -0.090188 -0.000000 0.000000 0.000000 0.000000 0.000000 0.000000 0.000000 6.095585 9.658709 -0.335382 54.015582 45.984673 18.129714 0.543018 59.807316 -0.004782 0.485674 8.428646 0.044036 -0.069956 -0.480108 -0.000000 0.000000 0.000000 0.000000 0.000000 0.000000 0.000000 
0.103521 16.574143 -0.327476 25.369118 84.622753 30.937292 -9.058240 1.034966 0.541963 -21.092644 8.430698 -36.175121 -2.009058 0.999799 34.035078 2.708226 13.363717 -13.012002 -1.166600 -0.000000 -0.576800 12.221535 -4.139210 -0.740669 -6.694720 -12.756232 -8.561145 -0.423209 -3.937080 53.840845 0.061601 19.584073 19.899866 8.879500 -0.000001 -77.319700 -8.734927 1.778004 -1.670761 -2.468661 2.264141 -3.967526 -5.497734 2.139753 -2.024579 5.689814 1.477922 -7.105691 -2.762195 -0.220736 0.087519 0.000000 0.000000 0.000000 -10.430704 17.647970 3.194547 -62.741798 26.043859 3.008299 -4.610896 -12.911528 -0.011671 -1.003583 6.199013 -0.050668 -0.087837 -0.083511 -0.000000 0.000000 0.000000 0.000000 0.000000 0.000000 0.000000 6.660913 10.067327 -0.260226 55.360129 44.934666 17.890667 0.583325 59.097326 -0.004968 0.387471 8.479785 0.036276 -0.065773 -0.478657 -0.000000 0.000000 0.000000 0.000000 0.000000 0.000000 0.000000 
